<svg width="120" height="122" viewBox="0 0 120 122" fill="none" xmlns="http://www.w3.org/2000/svg">
<g clip-path="url(#clip0_69_714)">
<g clip-path="url(#clip1_69_714)">
<g clip-path="url(#clip2_69_714)">
<mask id="mask0_69_714" style="mask-type:luminance" maskUnits="userSpaceOnUse" x="0" y="0" width="120" height="122">
<path d="M119.998 0.189941H0.00244141V121.13H119.998V0.189941Z" fill="white"/>
</mask>
<g mask="url(#mask0_69_714)">
<mask id="mask1_69_714" style="mask-type:luminance" maskUnits="userSpaceOnUse" x="0" y="0" width="120" height="121">
<path d="M119.998 0.189941H0.00244141V120.707H119.998V0.189941Z" fill="white"/>
</mask>
<g mask="url(#mask1_69_714)">
<path d="M61.2452 117.951C92.9815 117.951 118.709 92.2242 118.709 60.4879C118.709 28.7517 92.9815 3.02441 61.2452 3.02441C29.509 3.02441 3.78174 28.7517 3.78174 60.4879C3.78174 92.2242 29.509 117.951 61.2452 117.951Z" fill="#FDFFFE" fill-opacity="0.7"/>
<path d="M111.203 11.9659C114.454 11.9659 117.09 9.32974 117.09 6.07791C117.09 2.82607 114.454 0.189941 111.203 0.189941C107.951 0.189941 105.315 2.82607 105.315 6.07791C105.315 9.32974 107.951 11.9659 111.203 11.9659Z" fill="white"/>
<path d="M5.89041 87.1675C9.14224 87.1675 11.7784 84.5314 11.7784 81.2796C11.7784 78.0277 9.14224 75.3916 5.89041 75.3916C2.63857 75.3916 0.00244141 78.0277 0.00244141 81.2796C0.00244141 84.5314 2.63857 87.1675 5.89041 87.1675Z" fill="white"/>
<path d="M11.1822 66.5222C13.3227 66.5222 15.0579 64.787 15.0579 62.6466C15.0579 60.5061 13.3227 58.771 11.1822 58.771C9.04182 58.771 7.30664 60.5061 7.30664 62.6466C7.30664 64.787 9.04182 66.5222 11.1822 66.5222Z" fill="white"/>
<path d="M21.5418 120.781C23.0236 120.781 24.2249 119.579 24.2249 118.098C24.2249 116.616 23.0236 115.415 21.5418 115.415C20.0599 115.415 18.8586 116.616 18.8586 118.098C18.8586 119.579 20.0599 120.781 21.5418 120.781Z" fill="white"/>
<path d="M117.09 22.9964C118.696 22.9964 119.997 21.6951 119.997 20.0897C119.997 18.4844 118.696 17.1831 117.09 17.1831C115.485 17.1831 114.184 18.4844 114.184 20.0897C114.184 21.6951 115.485 22.9964 117.09 22.9964Z" fill="white"/>
<path d="M102.482 4.289C103.347 4.289 104.048 3.58825 104.048 2.72384C104.048 1.85943 103.347 1.15869 102.482 1.15869C101.618 1.15869 100.917 1.85943 100.917 2.72384C100.917 3.58825 101.618 4.289 102.482 4.289Z" fill="white"/>
</g>
</g>
</g>
</g>
</g>
<defs>
<clipPath id="clip0_69_714">
<rect width="120" height="120.94" fill="white" transform="translate(0 0.189941)"/>
</clipPath>
<clipPath id="clip1_69_714">
<rect width="120" height="120.94" fill="white" transform="translate(0 0.189941)"/>
</clipPath>
<clipPath id="clip2_69_714">
<rect width="119.995" height="120.94" fill="white" transform="translate(0.00244141 0.189941)"/>
</clipPath>
</defs>
</svg>
